<svg id="submit" xmlns="http://www.w3.org/2000/svg" width="50" height="50" viewBox="0 0 50 50">
  <defs>
    <style>
      .cls-1 {
        fill: #86c5ff;
      }

      .cls-2 {
        fill: #fff;
        fill-rule: evenodd;
      }
    </style>
  </defs>
  <circle class="cls-1" cx="25" cy="25" r="25"/>
  <path class="cls-2" d="M625.25,1073.5a14.25,14.25,0,1,0,14.252,14.25A14.251,14.251,0,0,0,625.25,1073.5Zm7.379,13.17-6.461,6.46c-1.24,1.24-2.937,1.56-3.79.7-0.012-.01-0.018-0.02-0.029-0.03a2.116,2.116,0,0,1-.548-0.37l-3.907-3.9a1.923,1.923,0,0,1,2.718-2.72l2.851,2.85,6.077-6.08c1.241-1.24,2.936-1.55,3.791-.7S633.868,1085.43,632.629,1086.67Z" transform="translate(-600 -1063)"/>
</svg>
